<?xml version="1.0"?>
<svg xmlns="http://www.w3.org/2000/svg" xmlns:xlink="http://www.w3.org/1999/xlink" xmlns:svgjs="http://svgjs.com/svgjs" version="1.1" width="24" height="24" x="0" y="0" viewBox="0 0 477.867 477.867" style="enable-background:new 0 0 24 24" xml:space="preserve"><g transform="matrix(1,0,0,1,2.842170943040401e-14,2.842170943040401e-14)">
<g xmlns="http://www.w3.org/2000/svg">
	<g>
		<path d="M472.184,4.349c-3.627-3.216-8.44-4.759-13.261-4.25l-307.2,34.133c-8.647,0.957-15.19,8.265-15.189,16.964v304.128    c-15.474-9.239-33.178-14.078-51.2-13.995C38.281,341.33,0,371.948,0,409.597s38.281,68.267,85.333,68.267    s85.333-30.618,85.333-68.267V151.89l273.067-30.43v199.68c-15.48-9.221-33.182-14.042-51.2-13.943    c-47.053,0-85.333,30.618-85.333,68.267c0,37.649,38.281,68.267,85.333,68.267s85.333-30.618,85.333-68.267v-358.4    C477.866,12.21,475.8,7.586,472.184,4.349z M85.333,443.73c-27.75,0-51.2-15.633-51.2-34.133s23.45-34.133,51.2-34.133    c27.75,0,51.2,15.633,51.2,34.133S113.084,443.73,85.333,443.73z M392.533,409.597c-27.75,0-51.2-15.633-51.2-34.133    c0-18.5,23.45-34.133,51.2-34.133c27.75,0,51.2,15.633,51.2,34.133C443.733,393.964,420.284,409.597,392.533,409.597z     M443.733,87.122l-273.067,30.345v-50.91l273.067-30.43V87.122z" fill="#ffffff" data-original="#000000" style=""/>
	</g>
</g>
<g xmlns="http://www.w3.org/2000/svg">
</g>
<g xmlns="http://www.w3.org/2000/svg">
</g>
<g xmlns="http://www.w3.org/2000/svg">
</g>
<g xmlns="http://www.w3.org/2000/svg">
</g>
<g xmlns="http://www.w3.org/2000/svg">
</g>
<g xmlns="http://www.w3.org/2000/svg">
</g>
<g xmlns="http://www.w3.org/2000/svg">
</g>
<g xmlns="http://www.w3.org/2000/svg">
</g>
<g xmlns="http://www.w3.org/2000/svg">
</g>
<g xmlns="http://www.w3.org/2000/svg">
</g>
<g xmlns="http://www.w3.org/2000/svg">
</g>
<g xmlns="http://www.w3.org/2000/svg">
</g>
<g xmlns="http://www.w3.org/2000/svg">
</g>
<g xmlns="http://www.w3.org/2000/svg">
</g>
<g xmlns="http://www.w3.org/2000/svg">
</g>
</g></svg>
